<svg width="88" height="92" viewBox="0 0 88 92" fill="none" xmlns="http://www.w3.org/2000/svg">
<path d="M87.7417 21.0334C87.6583 18.0417 85.5042 15.5084 82.575 15.0042C65.4833 12.3917 49.0417 2.2292 47.2917 1.13337C45.4583 -0.087462 42.8167 -0.216629 40.7417 1.13337C40.5792 1.2167 23.2833 12.2667 5.3375 15.0042C2.4875 15.5125 0.333333 18.0417 0.25 21.1209C0.25 23.1875 0.370831 71.85 41.6375 91.3292C42.45 91.6625 43.2625 91.8334 43.9958 91.8334C45.0125 91.8334 45.9083 91.5375 46.4792 91.2834C88.6375 71.3834 87.7833 21.3292 87.7417 21.0334ZM40.9458 83.95C6.4375 65.3084 6.35417 23.0167 6.27083 21.2459C20.9208 19.0125 34.9208 11.7167 40.9417 8.30004V83.95H40.9458ZM47.05 83.95V8.30004C53.1542 11.8 67.1125 19.0542 81.6417 21.2875C81.6375 21.7084 82.5333 64.8459 47.05 83.95Z" fill="#0F1419"/>
</svg>
